<mxfile host="app.diagrams.net" modified="2020-10-02T08:27:42.843Z" agent="5.0 (Windows NT 10.0; Win64; x64) AppleWebKit/537.36 (KHTML, like Gecko) Chrome/85.0.4183.121 Safari/537.36" etag="BsIvxr2d3r3WCdIloUfq" version="13.7.7" type="github">
  <diagram id="mafe23Yj3McOGW2DAxR-" name="Page-1">
    <mxGraphModel dx="942" dy="614" grid="1" gridSize="10" guides="1" tooltips="1" connect="1" arrows="1" fold="1" page="1" pageScale="1" pageWidth="827" pageHeight="1169" math="0" shadow="0">
      <root>
        <mxCell id="0" />
        <mxCell id="1" parent="0" />
        <mxCell id="kQBJ1OaCG2fp5BgfOdMg-2" value="Receptionist" style="shape=umlActor;verticalLabelPosition=bottom;verticalAlign=top;html=1;outlineConnect=0;" parent="1" vertex="1">
          <mxGeometry x="120" y="340" width="30" height="60" as="geometry" />
        </mxCell>
        <mxCell id="kQBJ1OaCG2fp5BgfOdMg-4" value="Costumer" style="shape=umlActor;verticalLabelPosition=bottom;verticalAlign=top;html=1;outlineConnect=0;" parent="1" vertex="1">
          <mxGeometry x="220" y="120" width="30" height="60" as="geometry" />
        </mxCell>
        <mxCell id="kQBJ1OaCG2fp5BgfOdMg-8" value="&lt;font style=&quot;font-size: 20px&quot;&gt;Electricity&lt;/font&gt;" style="ellipse;whiteSpace=wrap;html=1;" parent="1" vertex="1">
          <mxGeometry x="620" y="320" width="120" height="80" as="geometry" />
        </mxCell>
        <mxCell id="kQBJ1OaCG2fp5BgfOdMg-11" value="have a car/not" style="text;html=1;strokeColor=none;fillColor=none;align=center;verticalAlign=middle;whiteSpace=wrap;rounded=0;" parent="1" vertex="1">
          <mxGeometry x="520" y="220" width="100" height="20" as="geometry" />
        </mxCell>
        <mxCell id="kQBJ1OaCG2fp5BgfOdMg-14" value="Space" style="ellipse;whiteSpace=wrap;html=1;fontSize=20;" parent="1" vertex="1">
          <mxGeometry x="380" y="320" width="120" height="80" as="geometry" />
        </mxCell>
        <mxCell id="kQBJ1OaCG2fp5BgfOdMg-37" value="Check if the spaces are avaiable" style="ellipse;whiteSpace=wrap;html=1;fontSize=20;" parent="1" vertex="1">
          <mxGeometry x="210" y="310" width="140" height="100" as="geometry" />
        </mxCell>
        <mxCell id="kQBJ1OaCG2fp5BgfOdMg-38" value="" style="endArrow=none;html=1;fontSize=20;exitX=1;exitY=0.5;exitDx=0;exitDy=0;entryX=0;entryY=0.5;entryDx=0;entryDy=0;" parent="1" source="kQBJ1OaCG2fp5BgfOdMg-37" target="kQBJ1OaCG2fp5BgfOdMg-14" edge="1">
          <mxGeometry width="50" height="50" relative="1" as="geometry">
            <mxPoint x="390" y="490" as="sourcePoint" />
            <mxPoint x="440" y="440" as="targetPoint" />
          </mxGeometry>
        </mxCell>
        <mxCell id="kQBJ1OaCG2fp5BgfOdMg-39" value="" style="endArrow=none;html=1;fontSize=20;exitX=0;exitY=0.5;exitDx=0;exitDy=0;entryX=1;entryY=0.3333333333333333;entryDx=0;entryDy=0;entryPerimeter=0;" parent="1" source="kQBJ1OaCG2fp5BgfOdMg-37" target="kQBJ1OaCG2fp5BgfOdMg-2" edge="1">
          <mxGeometry width="50" height="50" relative="1" as="geometry">
            <mxPoint x="180" y="390" as="sourcePoint" />
            <mxPoint x="230" y="340" as="targetPoint" />
          </mxGeometry>
        </mxCell>
        <mxCell id="oQ_AF5U_2fdVhPuEp95X-6" style="edgeStyle=orthogonalEdgeStyle;rounded=0;orthogonalLoop=1;jettySize=auto;html=1;entryX=0.5;entryY=1;entryDx=0;entryDy=0;" edge="1" parent="1" source="oQ_AF5U_2fdVhPuEp95X-2" target="kQBJ1OaCG2fp5BgfOdMg-14">
          <mxGeometry relative="1" as="geometry">
            <mxPoint x="500" y="580" as="targetPoint" />
            <Array as="points">
              <mxPoint x="440" y="480" />
            </Array>
          </mxGeometry>
        </mxCell>
        <mxCell id="oQ_AF5U_2fdVhPuEp95X-2" value="&lt;font style=&quot;font-size: 20px&quot;&gt;Occupied&lt;/font&gt;" style="ellipse;whiteSpace=wrap;html=1;" vertex="1" parent="1">
          <mxGeometry x="620" y="440" width="120" height="80" as="geometry" />
        </mxCell>
        <mxCell id="oQ_AF5U_2fdVhPuEp95X-17" style="edgeStyle=orthogonalEdgeStyle;rounded=0;orthogonalLoop=1;jettySize=auto;html=1;" edge="1" parent="1" source="oQ_AF5U_2fdVhPuEp95X-3">
          <mxGeometry relative="1" as="geometry">
            <mxPoint x="440" y="400" as="targetPoint" />
          </mxGeometry>
        </mxCell>
        <mxCell id="oQ_AF5U_2fdVhPuEp95X-3" value="&lt;font style=&quot;font-size: 20px&quot;&gt;Reserved&lt;/font&gt;" style="ellipse;whiteSpace=wrap;html=1;" vertex="1" parent="1">
          <mxGeometry x="620" y="545" width="120" height="80" as="geometry" />
        </mxCell>
        <mxCell id="oQ_AF5U_2fdVhPuEp95X-4" value="optional" style="text;html=1;strokeColor=none;fillColor=none;align=center;verticalAlign=middle;whiteSpace=wrap;rounded=0;" vertex="1" parent="1">
          <mxGeometry x="520" y="340" width="90" height="20" as="geometry" />
        </mxCell>
        <mxCell id="oQ_AF5U_2fdVhPuEp95X-7" value="&lt;font style=&quot;font-size: 20px&quot;&gt;Sleep for a night/nights&lt;/font&gt;" style="ellipse;whiteSpace=wrap;html=1;" vertex="1" parent="1">
          <mxGeometry x="380" y="630" width="120" height="80" as="geometry" />
        </mxCell>
        <mxCell id="oQ_AF5U_2fdVhPuEp95X-9" value="" style="endArrow=none;html=1;exitX=1;exitY=0.5;exitDx=0;exitDy=0;entryX=0.5;entryY=1;entryDx=0;entryDy=0;" edge="1" parent="1" source="oQ_AF5U_2fdVhPuEp95X-7" target="oQ_AF5U_2fdVhPuEp95X-3">
          <mxGeometry width="50" height="50" relative="1" as="geometry">
            <mxPoint x="680" y="720" as="sourcePoint" />
            <mxPoint x="680" y="680" as="targetPoint" />
            <Array as="points">
              <mxPoint x="680" y="670" />
            </Array>
          </mxGeometry>
        </mxCell>
        <mxCell id="oQ_AF5U_2fdVhPuEp95X-11" style="edgeStyle=orthogonalEdgeStyle;rounded=0;orthogonalLoop=1;jettySize=auto;html=1;entryX=0.5;entryY=0;entryDx=0;entryDy=0;" edge="1" parent="1" source="oQ_AF5U_2fdVhPuEp95X-10" target="kQBJ1OaCG2fp5BgfOdMg-14">
          <mxGeometry relative="1" as="geometry">
            <Array as="points">
              <mxPoint x="440" y="240" />
            </Array>
          </mxGeometry>
        </mxCell>
        <mxCell id="oQ_AF5U_2fdVhPuEp95X-10" value="&lt;font style=&quot;font-size: 20px&quot;&gt;Caravan/Tent&lt;/font&gt;" style="ellipse;whiteSpace=wrap;html=1;" vertex="1" parent="1">
          <mxGeometry x="620" y="200" width="120" height="80" as="geometry" />
        </mxCell>
        <mxCell id="oQ_AF5U_2fdVhPuEp95X-13" value="" style="endArrow=none;dashed=1;html=1;exitX=1;exitY=0.5;exitDx=0;exitDy=0;entryX=-0.2;entryY=0.456;entryDx=0;entryDy=0;entryPerimeter=0;" edge="1" parent="1" source="kQBJ1OaCG2fp5BgfOdMg-14" target="oQ_AF5U_2fdVhPuEp95X-14">
          <mxGeometry width="50" height="50" relative="1" as="geometry">
            <mxPoint x="570" y="410" as="sourcePoint" />
            <mxPoint x="600" y="360" as="targetPoint" />
          </mxGeometry>
        </mxCell>
        <mxCell id="oQ_AF5U_2fdVhPuEp95X-14" value="" style="triangle;whiteSpace=wrap;html=1;" vertex="1" parent="1">
          <mxGeometry x="610" y="355" width="10" height="10" as="geometry" />
        </mxCell>
        <mxCell id="oQ_AF5U_2fdVhPuEp95X-18" value="&lt;font style=&quot;font-size: 20px&quot;&gt;Bill&lt;/font&gt;" style="ellipse;whiteSpace=wrap;html=1;" vertex="1" parent="1">
          <mxGeometry x="60" y="230" width="120" height="80" as="geometry" />
        </mxCell>
        <mxCell id="oQ_AF5U_2fdVhPuEp95X-21" value="" style="endArrow=none;html=1;exitX=0.5;exitY=1;exitDx=0;exitDy=0;" edge="1" parent="1" source="oQ_AF5U_2fdVhPuEp95X-18">
          <mxGeometry width="50" height="50" relative="1" as="geometry">
            <mxPoint x="70" y="410" as="sourcePoint" />
            <mxPoint x="120" y="360" as="targetPoint" />
          </mxGeometry>
        </mxCell>
        <mxCell id="oQ_AF5U_2fdVhPuEp95X-22" value="" style="endArrow=none;html=1;exitX=0.5;exitY=0;exitDx=0;exitDy=0;entryX=0;entryY=0.3333333333333333;entryDx=0;entryDy=0;entryPerimeter=0;" edge="1" parent="1" source="oQ_AF5U_2fdVhPuEp95X-18" target="kQBJ1OaCG2fp5BgfOdMg-4">
          <mxGeometry width="50" height="50" relative="1" as="geometry">
            <mxPoint x="70" y="190" as="sourcePoint" />
            <mxPoint x="120" y="140" as="targetPoint" />
            <Array as="points">
              <mxPoint x="120" y="140" />
            </Array>
          </mxGeometry>
        </mxCell>
      </root>
    </mxGraphModel>
  </diagram>
</mxfile>
